<svg xmlns="http://www.w3.org/2000/svg" viewBox="0 0 200 200" fill="none">
  <rect width="200" height="200" fill="#fff"/>
  <rect x="20" y="20" width="50" height="50" fill="#0f0f12"/>
  <rect x="130" y="20" width="50" height="50" fill="#0f0f12"/>
  <rect x="20" y="130" width="50" height="50" fill="#0f0f12"/>
  <g fill="#0f0f12">
    <rect x="85" y="30" width="10" height="10"/>
    <rect x="100" y="45" width="10" height="10"/>
    <rect x="85" y="60" width="10" height="10"/>
    <rect x="115" y="75" width="10" height="10"/>
    <rect x="85" y="90" width="10" height="10"/>
    <rect x="100" y="105" width="10" height="10"/>
    <rect x="130" y="90" width="10" height="10"/>
    <rect x="145" y="120" width="10" height="10"/>
    <rect x="85" y="135" width="10" height="10"/>
    <rect x="100" y="150" width="10" height="10"/>
    <rect x="130" y="150" width="10" height="10"/>
    <rect x="160" y="160" width="10" height="10"/>
  </g>
  <text x="100" y="195" text-anchor="middle" font-family="sans-serif" font-size="8" fill="#888">MirAi QR Placeholder</text>
</svg>
